# xmcd
#
# Track frame offsets: 
#        150
#        17566
#        34118
#        50832
#        71310
#        91363
#        106635
#        123647
#        140781
#        156967
#        175285
#        195464
#
# Disc length: 2873 seconds
#
# Revision: 0
# Processed by: cddbd v1.5.2PL0 Copyright (c) Steve Scherf et al.
# Submitted via: ExactAudioCopy v0.99pb3
#
DISCID=a20b370c
DTITLE=Διονύσης Μακρής - Χρυσή Δισκοθήκη - Διονύσης Μακρής
DYEAR=2007
DGENRE=Folk
TTITLE0=Απόλαυση
TTITLE1=Μετά από Μένα Ποιόν Θα Καταστρέψεις
TTITLE2=Και Δεν Μπορώ
TTITLE3=Γενέθλια
TTITLE4=Εσύ
TTITLE5=Φεύγω, Χωρίζω
TTITLE6=Πες Κι Ένα Ευχαριστώ
TTITLE7=Τελευταία Φορά
TTITLE8=Χάθηκες
TTITLE9=Παρασύρεσαι
TTITLE10=Φοβάμαι
TTITLE11=Όλα Σ' Αγαπάνε
EXTD=
EXTT0=
EXTT1=
EXTT2=
EXTT3=
EXTT4=
EXTT5=
EXTT6=
EXTT7=
EXTT8=
EXTT9=
EXTT10=
EXTT11=
PLAYORDER=
